<?xml version="1.0" encoding="utf-8"?>
<!-- Generator: Adobe Illustrator 19.2.0, SVG Export Plug-In . SVG Version: 6.00 Build 0)  -->
<svg version="1.1" id="Layer_1" xmlns="http://www.w3.org/2000/svg" xmlns:xlink="http://www.w3.org/1999/xlink" x="0px" y="0px"
	 width="470px" height="815px" viewBox="0 0 470 815" style="enable-background:new 0 0 470 815;" xml:space="preserve">
<style type="text/css">
	.st0{display:none;}
	.st1{display:inline;}
	.st2{fill:#D82538;}
	.st3{clip-path:url(#SVGID_3_);fill:#C42B40;}
	.st4{clip-path:url(#SVGID_5_);fill:#801F32;}
	.st5{clip-path:url(#SVGID_7_);fill:#E23435;}
	.st6{clip-path:url(#SVGID_9_);fill:#E23435;}
	.st7{fill:#7F1F31;}
	.st8{fill:#E2E2E2;}
	.st9{clip-path:url(#SVGID_11_);fill:#494949;}
	.st10{clip-path:url(#SVGID_13_);fill:#494949;}
	.st11{clip-path:url(#SVGID_15_);fill:#494949;}
	.st12{opacity:0.15;clip-path:url(#SVGID_17_);fill:#212526;enable-background:new    ;}
	.st13{clip-path:url(#SVGID_19_);fill:#494949;}
	.st14{clip-path:url(#SVGID_21_);fill:#494949;}
	.st15{clip-path:url(#SVGID_23_);fill:#494949;}
	.st16{opacity:0.15;clip-path:url(#SVGID_25_);fill:#212526;enable-background:new    ;}
	.st17{clip-path:url(#SVGID_27_);fill:#494949;}
	.st18{fill:#D82537;}
	.st19{clip-path:url(#SVGID_29_);fill:#494949;}
	.st20{fill:#F0F0F0;}
	.st21{clip-path:url(#SVGID_31_);fill:#E2E2E2;}
	.st22{clip-path:url(#SVGID_33_);fill:#CACDCE;}
	.st23{fill:#F7ECDF;}
	.st24{clip-path:url(#SVGID_35_);fill:#EFE0CA;}
	.st25{clip-path:url(#SVGID_37_);fill:#494949;}
	.st26{clip-path:url(#SVGID_39_);fill:#FAD175;}
	.st27{clip-path:url(#SVGID_41_);fill:#F9DA78;}
	.st28{clip-path:url(#SVGID_43_);fill:#F9C178;}
	.st29{clip-path:url(#SVGID_45_);fill:#EE508E;}
	.st30{fill:#3D3D3D;}
	.st31{fill:#F9DA78;}
	.st32{fill:#F9C178;}
	.st33{fill:#FFFFFF;}
	.st34{display:none;clip-path:url(#SVGID_47_);}
	.st35{fill:#E4CED9;}
	.st36{display:none;clip-path:url(#SVGID_49_);}
	.st37{fill:none;stroke:#E4CED9;stroke-miterlimit:10;}
	.st38{display:none;clip-path:url(#SVGID_51_);fill:#FFFFFF;}
</style>
<g id="Layer_2" class="st0">
	<rect x="0.5" y="-0.2" class="st1" width="1920" height="815.4"/>
</g>
<g id="Layer_1_1_">
	<g id="rocket">
		<g id="body">
			<g>
				<g>
					<g>
						<path id="SVGID_1_" class="st2" d="M242.5,0c-22,0-49.5,43.6-49.5,75.3V194h99V75.3C292,45.7,265.4,0,242.5,0z"/>
					</g>
					<g>
						<g>
							<defs>
								<path id="SVGID_2_" d="M242.5,0c-22,0-49.5,43.6-49.5,75.3V194h99V75.3C292,45.7,265.4,0,242.5,0z"/>
							</defs>
							<clipPath id="SVGID_3_">
								<use xlink:href="#SVGID_2_"  style="overflow:visible;"/>
							</clipPath>
							<rect x="242.3" class="st3" width="58.5" height="190"/>
						</g>
					</g>
					<g>
						<g>
							<defs>
								<path id="SVGID_4_" d="M242.5,0c-22,0-49.5,43.6-49.5,75.3V194h99V75.3C292,45.7,265.4,0,242.5,0z"/>
							</defs>
							<clipPath id="SVGID_5_">
								<use xlink:href="#SVGID_4_"  style="overflow:visible;"/>
							</clipPath>
							<rect x="184.2" y="-8.7" class="st4" width="113.3" height="59.3"/>
						</g>
					</g>
					<g>
						<g>
							<defs>
								<path id="SVGID_6_" d="M242.5,0c-22,0-49.5,43.6-49.5,75.3V194h99V75.3C292,45.7,265.4,0,242.5,0z"/>
							</defs>
							<clipPath id="SVGID_7_">
								<use xlink:href="#SVGID_6_"  style="overflow:visible;"/>
							</clipPath>
							<rect x="163.7" y="81.5" class="st5" width="205.3" height="7"/>
						</g>
					</g>
					<g>
						<g>
							<defs>
								<path id="SVGID_8_" d="M242.5,0c-22,0-49.5,43.6-49.5,75.3V194h99V75.3C292,45.7,265.4,0,242.5,0z"/>
							</defs>
							<clipPath id="SVGID_9_">
								<use xlink:href="#SVGID_8_"  style="overflow:visible;"/>
							</clipPath>
							<rect x="163.7" y="106.5" class="st6" width="205.3" height="7"/>
						</g>
					</g>
				</g>
				<g id="Raketka">
					<rect x="170" y="272" class="st7" width="35" height="29"/>
					<g>
						<g>
							<path id="XMLID_13_" class="st8" d="M187,74c0,0-16,13.3-16,31v154h32V105C203,87.9,187,74,187,74z"/>
						</g>
						<g>
							<g>
								<defs>
									<path id="SVGID_10_" d="M187,74c0,0-16,13.3-16,31v154h32V105C203,87.9,187,74,187,74z"/>
								</defs>
								<clipPath id="SVGID_11_">
									<use xlink:href="#SVGID_10_"  style="overflow:visible;"/>
								</clipPath>
								<rect x="161" y="116" class="st9" width="48" height="18"/>
							</g>
						</g>
						<g>
							<g>
								<defs>
									<path id="SVGID_12_" d="M187,74c0,0-16,13.3-16,31v154h32V105C203,87.9,187,74,187,74z"/>
								</defs>
								<clipPath id="SVGID_13_">
									<use xlink:href="#SVGID_12_"  style="overflow:visible;"/>
								</clipPath>
								<rect x="161" y="161" class="st10" width="48" height="8"/>
							</g>
						</g>
						<g>
							<g>
								<defs>
									<path id="SVGID_14_" d="M187,74c0,0-16,13.3-16,31v154h32V105C203,87.9,187,74,187,74z"/>
								</defs>
								<clipPath id="SVGID_15_">
									<use xlink:href="#SVGID_14_"  style="overflow:visible;"/>
								</clipPath>
								<rect x="161" y="175" class="st11" width="48" height="8"/>
							</g>
						</g>
						<g>
							<g>
								<defs>
									<path id="SVGID_16_" d="M187,74c0,0-16,13.3-16,31v154h32V105C203,87.9,187,74,187,74z"/>
								</defs>
								<clipPath id="SVGID_17_">
									<use xlink:href="#SVGID_16_"  style="overflow:visible;"/>
								</clipPath>
								<rect x="187" y="70" class="st12" width="16" height="193"/>
							</g>
						</g>
					</g>
					<g>
						<g>
							<path id="XMLID_7_" class="st8" d="M298,74c0,0-16,13.3-16,31v154h32V105C314,87.9,298,74,298,74z"/>
						</g>
						<g>
							<g>
								<defs>
									<path id="SVGID_18_" d="M298,74c0,0-16,13.3-16,31v154h32V105C314,87.9,298,74,298,74z"/>
								</defs>
								<clipPath id="SVGID_19_">
									<use xlink:href="#SVGID_18_"  style="overflow:visible;"/>
								</clipPath>
								<rect x="272" y="116" class="st13" width="48" height="18"/>
							</g>
						</g>
						<g>
							<g>
								<defs>
									<path id="SVGID_20_" d="M298,74c0,0-16,13.3-16,31v154h32V105C314,87.9,298,74,298,74z"/>
								</defs>
								<clipPath id="SVGID_21_">
									<use xlink:href="#SVGID_20_"  style="overflow:visible;"/>
								</clipPath>
								<rect x="272" y="161" class="st14" width="48" height="8"/>
							</g>
						</g>
						<g>
							<g>
								<defs>
									<path id="SVGID_22_" d="M298,74c0,0-16,13.3-16,31v154h32V105C314,87.9,298,74,298,74z"/>
								</defs>
								<clipPath id="SVGID_23_">
									<use xlink:href="#SVGID_22_"  style="overflow:visible;"/>
								</clipPath>
								<rect x="272" y="175" class="st15" width="48" height="8"/>
							</g>
						</g>
						<g>
							<g>
								<defs>
									<path id="SVGID_24_" d="M298,74c0,0-16,13.3-16,31v154h32V105C314,87.9,298,74,298,74z"/>
								</defs>
								<clipPath id="SVGID_25_">
									<use xlink:href="#SVGID_24_"  style="overflow:visible;"/>
								</clipPath>
								<rect x="298" y="70" class="st16" width="16" height="193"/>
							</g>
						</g>
					</g>
					<polygon class="st7" points="204.4,305 170.6,305 174.5,312 200.5,312 					"/>
					<g>
						<g>
							<polygon id="XMLID_10_" class="st8" points="167,326 208,326 200.5,312 174.5,312 							"/>
						</g>
						<g>
							<g>
								<defs>
									<polygon id="SVGID_26_" points="167,326 208,326 200.5,312 174.5,312 									"/>
								</defs>
								<clipPath id="SVGID_27_">
									<use xlink:href="#SVGID_26_"  style="overflow:visible;"/>
								</clipPath>
								<rect x="161" y="323" class="st17" width="49" height="6"/>
							</g>
						</g>
					</g>
					<path class="st18" d="M205,302.2c0-0.7-0.6-1.2-1.2-1.2h-33.5c-0.7,0-1.2,0.6-1.2,1.2v1.5c0,0.7,0.6,1.2,1.2,1.2h33.5
						c0.7,0,1.2-0.6,1.2-1.2V302.2z"/>
					<rect x="280" y="272" class="st7" width="35" height="29"/>
					<polygon class="st7" points="314.4,305 280.6,305 284.5,312 310.5,312 					"/>
					<g>
						<g>
							<polygon id="XMLID_12_" class="st8" points="277,326 318,326 310.5,312 284.5,312 							"/>
						</g>
						<g>
							<g>
								<defs>
									<polygon id="SVGID_28_" points="277,326 318,326 310.5,312 284.5,312 									"/>
								</defs>
								<clipPath id="SVGID_29_">
									<use xlink:href="#SVGID_28_"  style="overflow:visible;"/>
								</clipPath>
								<rect x="271" y="323" class="st19" width="49" height="6"/>
							</g>
						</g>
					</g>
					<path class="st18" d="M315,302.2c0-0.7-0.6-1.2-1.2-1.2h-33.5c-0.7,0-1.2,0.6-1.2,1.2v1.5c0,0.7,0.6,1.2,1.2,1.2h33.5
						c0.7,0,1.2-0.6,1.2-1.2V302.2z"/>
					<g>
						<g>
							<path id="XMLID_4_" class="st20" d="M160.1,288.7c-7.9-1.7-12.8-4.3-11.6-14.8c1.2-10.6,2.9-10.9,4.3-14.2
								c1.4-3.4,8.9-10.6,15.4-13.5S196.8,224,200,199c3.1-25,2.2-27.8,9.7-35.7c8.2,0,8.4-4.3,8.4-4.3l2,135
								C220,294,168,290.4,160.1,288.7z"/>
						</g>
						<g>
							<g>
								<defs>
									<path id="SVGID_30_" d="M160.1,288.7c-7.9-1.7-12.8-4.3-11.6-14.8c1.2-10.6,2.9-10.9,4.3-14.2c1.4-3.4,8.9-10.6,15.4-13.5
										S196.8,224,200,199c3.1-25,2.2-27.8,9.7-35.7c8.2,0,8.4-4.3,8.4-4.3l2,135C220,294,168,290.4,160.1,288.7z"/>
								</defs>
								<clipPath id="SVGID_31_">
									<use xlink:href="#SVGID_30_"  style="overflow:visible;"/>
								</clipPath>
								<path id="XMLID_5_" class="st21" d="M214.6,77.9c0,0-42.5,46.1-34.4,103.5c7.4,52.5,34.2,127.5,41.3,146.8
									c1,2.7,3.8,4.4,6.6,4l43.7-6.2c2.9-0.4,5.1-2.8,5.3-5.6c1.5-20.5,6.5-100.2-0.9-152.5C268.2,110.8,214.6,77.9,214.6,77.9"/>
							</g>
						</g>
					</g>
					<g>
						<g>
							<path id="XMLID_8_" class="st20" d="M323.2,288.7c7.9-1.7,12.8-4.3,11.6-14.8c-1.2-10.6-2.9-10.9-4.3-14.2
								c-1.4-3.4-8.9-10.6-15.4-13.5S286.5,224,283.3,199c-3.1-25-0.6-29.7-8-37.6c-8.2,0-10-2.4-10-2.4l-2,135
								C263.3,294,315.3,290.4,323.2,288.7z"/>
						</g>
						<g>
							<g>
								<defs>
									<path id="SVGID_32_" d="M323.2,288.7c7.9-1.7,12.8-4.3,11.6-14.8c-1.2-10.6-2.9-10.9-4.3-14.2c-1.4-3.4-8.9-10.6-15.4-13.5
										S286.5,224,283.3,199c-3.1-25-0.6-29.7-8-37.6c-8.2,0-10-2.4-10-2.4l-2,135C263.3,294,315.3,290.4,323.2,288.7z"/>
								</defs>
								<clipPath id="SVGID_33_">
									<use xlink:href="#SVGID_32_"  style="overflow:visible;"/>
								</clipPath>
								<path id="XMLID_9_" class="st22" d="M270.8,77c0,0-53.5,32.6-61.6,90c-7.3,52.5-2.2,132-0.7,152.5c0.2,2.9,2.4,5.2,5.3,5.6
									l43.7,6.1c2.9,0.4,5.6-1.2,6.6-4c7.1-19.3,33.8-94.5,41.1-146.8C313.3,123.4,270.8,77,270.8,77"/>
							</g>
						</g>
					</g>
					<g>
						<g>
							<g>
								<path id="XMLID_1_" class="st23" d="M242.3,100.5c0,0-39.6,32.4-39.6,79.8c0,43.3,13.1,107.2,16.7,123.6
									c0.5,2.3,2.5,4.2,4.9,4.2h36c2.4,0,4.4-1.9,4.9-4.2c3.5-16.4,16.7-80.4,16.7-123.5C281.8,133.3,242.3,100.5,242.3,100.5"/>
							</g>
							<g>
								<g>
									<defs>
										<path id="SVGID_34_" d="M242.3,100.5c0,0-39.6,32.4-39.6,79.8c0,43.3,13.1,107.2,16.7,123.6c0.5,2.3,2.5,4.2,4.9,4.2h36
											c2.4,0,4.4-1.9,4.9-4.2c3.5-16.4,16.7-80.4,16.7-123.5C281.8,133.3,242.3,100.5,242.3,100.5"/>
									</defs>
									<clipPath id="SVGID_35_">
										<use xlink:href="#SVGID_34_"  style="overflow:visible;"/>
									</clipPath>
									<rect x="242" y="89" class="st24" width="46" height="107"/>
								</g>
							</g>
							<g>
								<g>
									<defs>
										<path id="SVGID_36_" d="M242.3,100.5c0,0-39.6,32.4-39.6,79.8c0,43.3,13.1,107.2,16.7,123.6c0.5,2.3,2.5,4.2,4.9,4.2h36
											c2.4,0,4.4-1.9,4.9-4.2c3.5-16.4,16.7-80.4,16.7-123.5C281.8,133.3,242.3,100.5,242.3,100.5"/>
									</defs>
									<clipPath id="SVGID_37_">
										<use xlink:href="#SVGID_36_"  style="overflow:visible;"/>
									</clipPath>
									<path class="st25" d="M264,118c0,0-6.3,2-21.7,2s-22.3-2-22.3-2V93h44V118z"/>
								</g>
							</g>
							<g>
								<g>
									<defs>
										<path id="SVGID_38_" d="M242.3,100.5c0,0-39.6,32.4-39.6,79.8c0,43.3,13.1,107.2,16.7,123.6c0.5,2.3,2.5,4.2,4.9,4.2h36
											c2.4,0,4.4-1.9,4.9-4.2c3.5-16.4,16.7-80.4,16.7-123.5C281.8,133.3,242.3,100.5,242.3,100.5"/>
									</defs>
									<clipPath id="SVGID_39_">
										<use xlink:href="#SVGID_38_"  style="overflow:visible;"/>
									</clipPath>
									<path class="st26" d="M255,316h-26V179c0,0,4.2-5,13-5s13,5,13,5V316z"/>
								</g>
							</g>
							<g>
								<g>
									<defs>
										<path id="SVGID_40_" d="M242.3,100.5c0,0-39.6,32.4-39.6,79.8c0,43.3,13.1,107.2,16.7,123.6c0.5,2.3,2.5,4.2,4.9,4.2h36
											c2.4,0,4.4-1.9,4.9-4.2c3.5-16.4,16.7-80.4,16.7-123.5C281.8,133.3,242.3,100.5,242.3,100.5"/>
									</defs>
									<clipPath id="SVGID_41_">
										<use xlink:href="#SVGID_40_"  style="overflow:visible;"/>
									</clipPath>
									<path class="st27" d="M229,316h-26V180c0,0,3.2-4,12-4s14,3,14,3V316z"/>
								</g>
							</g>
							<g>
								<g>
									<defs>
										<path id="SVGID_42_" d="M242.3,100.5c0,0-39.6,32.4-39.6,79.8c0,43.3,13.1,107.2,16.7,123.6c0.5,2.3,2.5,4.2,4.9,4.2h36
											c2.4,0,4.4-1.9,4.9-4.2c3.5-16.4,16.7-80.4,16.7-123.5C281.8,133.3,242.3,100.5,242.3,100.5"/>
									</defs>
									<clipPath id="SVGID_43_">
										<use xlink:href="#SVGID_42_"  style="overflow:visible;"/>
									</clipPath>
									<path class="st28" d="M255,316h27V180c0,0-3.7-4-12.5-4s-14.5,3-14.5,3V316z"/>
								</g>
							</g>
							<g>
								<g>
									<defs>
										<path id="SVGID_44_" d="M242.3,100.5c0,0-39.6,32.4-39.6,79.8c0,43.3,13.1,107.2,16.7,123.6c0.5,2.3,2.5,4.2,4.9,4.2h36
											c2.4,0,4.4-1.9,4.9-4.2c3.5-16.4,16.7-80.4,16.7-123.5C281.8,133.3,242.3,100.5,242.3,100.5"/>
									</defs>
									<clipPath id="SVGID_45_">
										<use xlink:href="#SVGID_44_"  style="overflow:visible;"/>
									</clipPath>
									<polygon class="st29" points="272,310 216,310 216,297 218.2,297 266.3,297 272,297 									"/>
								</g>
							</g>
						</g>
					</g>
					<path class="st30" d="M240.5,137l-0.1,7.6c0,0-8.1-1-16.2,0.8c-1.9,0.6-2.1-1-2.2-2.2c-0.1-1.5,0.6-3,4.4-4.2
						C233.4,137.1,240.5,137,240.5,137z"/>
					<path class="st30" d="M244,137l0.1,7.6c0,0,8.1-1,16.2,0.8c1.9,0.6,2.1-1,2.2-2.2c0.1-1.5-0.6-3-4.4-4.2
						C251.2,137.1,244,137,244,137z"/>
					<path class="st23" d="M243.3,323.6c-0.3,1.3-1.9,1.3-2.2,0c-1.6-6.9-12.3-56.3,1.2-56.3C255.8,267.3,245.1,316.7,243.3,323.6z"
						/>
					<rect x="226" y="308" class="st31" width="8" height="4"/>
					<polygon class="st32" points="235.9,317 224.1,317 225.1,312 234.9,312 					"/>
					<rect x="252" y="308" class="st31" width="8" height="4"/>
					<polygon class="st32" points="261.9,317 250.1,317 251.1,312 260.9,312 					"/>
				</g>
			</g>
		</g>
		<g id="lines">
			<rect x="170" y="330.4" class="st33" width="35" height="189.6"/>
			<rect x="281" y="330.4" class="st33" width="34" height="189.6"/>
			<rect x="225" y="317" class="st33" width="10" height="203"/>
			<rect x="251" y="317" class="st33" width="10" height="203"/>
		</g>
	</g>
	<g>
		<g>
			<defs>
				<rect id="SVGID_46_" x="0.5" y="-0.2" width="1920" height="815.4"/>
			</defs>
			<clipPath id="SVGID_47_">
				<use xlink:href="#SVGID_46_"  style="overflow:visible;"/>
			</clipPath>
			<g id="pink-smoke" class="st34">
				<g class="st1">
					<g>
						<path class="st35" d="M389,627.9c18.2,0,37.3-7.9,50.1-20.8c6.9-6.4,11.8-14,14.7-22.8c4.4-8.4,6.5-17.5,6.1-27.3
							c-0.8-18.3-6.8-37.3-20.8-50.1c-13.9-12.7-30.9-20.8-50.1-20.8c-18.2,0-37.3,7.9-50.1,20.8c-6.9,6.4-11.8,14-14.7,22.8
							c-4.4,8.4-6.5,17.5-6.1,27.3c0.8,18.3,6.8,37.3,20.8,50.1C352.8,619.8,369.8,627.9,389,627.9L389,627.9z"/>
					</g>
				</g>
				<g class="st1">
					<g>
						<path class="st35" d="M455,641.3c14.8,0,29-13,28.3-28.3c-0.7-15.4-12.5-28.3-28.3-28.3c-14.8,0-29,13-28.3,28.3
							C427.3,628.4,439.1,641.3,455,641.3L455,641.3z"/>
					</g>
				</g>
				<g class="st1">
					<g>
						<path class="st35" d="M515,677.3c14.8,0,29-13,28.3-28.3c-0.7-15.4-12.5-28.3-28.3-28.3c-14.8,0-29,13-28.3,28.3
							C487.3,664.4,499.1,677.3,515,677.3L515,677.3z"/>
					</g>
				</g>
				<g class="st1">
					<g>
						<path class="st35" d="M546,765.3c14.8,0,29-13,28.3-28.3c-0.7-15.4-12.5-28.3-28.3-28.3c-14.8,0-29,13-28.3,28.3
							C518.3,752.4,530.1,765.3,546,765.3L546,765.3z"/>
					</g>
				</g>
				<g class="st1">
					<g>
						<path class="st35" d="M505,743.3c14.8,0,29-13,28.3-28.3c-0.7-15.4-12.5-28.3-28.3-28.3c-14.8,0-29,13-28.3,28.3
							C477.3,730.4,489.1,743.3,505,743.3L505,743.3z"/>
					</g>
				</g>
				<g class="st1">
					<g>
						<path class="st35" d="M567,704.3c11.1,0,21.8-9.8,21.3-21.3s-9.3-21.3-21.3-21.3c-11.1,0-21.8,9.8-21.3,21.3
							C546.3,694.5,555.1,704.3,567,704.3L567,704.3z"/>
					</g>
				</g>
				<g class="st1">
					<g>
						<path class="st35" d="M574,651.1c9.1,0,9.1-14.2,0-14.2C564.9,636.9,564.9,651.1,574,651.1L574,651.1z"/>
					</g>
				</g>
				<g class="st1">
					<g>
						<path class="st35" d="M477,575.1c9.1,0,9.1-14.2,0-14.2C467.9,560.9,467.9,575.1,477,575.1L477,575.1z"/>
					</g>
				</g>
				<g class="st1">
					<g>
						<path class="st35" d="M435,526.2c7.7,0,14.2-6.5,14.2-14.2s-6.5-14.2-14.2-14.2s-14.2,6.5-14.2,14.2S427.3,526.2,435,526.2
							L435,526.2z"/>
					</g>
				</g>
				<g class="st1">
					<g>
						<path class="st35" d="M487,642.2c7.7,0,14.2-6.5,14.2-14.2s-6.5-14.2-14.2-14.2s-14.2,6.5-14.2,14.2S479.3,642.2,487,642.2
							L487,642.2z"/>
					</g>
				</g>
				<g class="st1">
					<g>
						<path class="st35" d="M153,511.5c10.9,0,22.4-4.7,30.1-12.5c7.4-7.4,12.9-19.5,12.5-30.1c-1-23-18.7-42.5-42.5-42.5
							c-10.9,0-22.4,4.7-30.1,12.5c-7.4,7.4-12.9,19.5-12.5,30.1C111.5,492,129.2,511.5,153,511.5L153,511.5z"/>
					</g>
				</g>
				<g class="st1">
					<g>
						<path class="st35" d="M114.7,535.4c0.7,0.3,1.3,0.7,2,1c3.3,2.1,6.8,3.2,10.5,3.4c3.8,0.8,7.5,0.7,11.3-0.5
							c3.7-0.9,6.9-2.6,9.6-5.1c3.1-2,5.5-4.6,7.3-8c1-2.3,1.9-4.5,2.9-6.8c1.4-5,1.4-10,0-15.1c-1-2.3-1.9-4.5-2.9-6.8
							c-2.5-4.3-5.9-7.6-10.2-10.2c-0.7-0.3-1.3-0.7-2-1c-3.3-2.1-6.8-3.2-10.5-3.4c-3.8-0.8-7.5-0.7-11.3,0.5
							c-3.7,0.9-6.9,2.6-9.6,5.1c-3.1,2-5.5,4.6-7.3,8c-1,2.3-1.9,4.5-2.9,6.8c-1.4,5-1.4,10,0,15.1c1,2.3,1.9,4.5,2.9,6.8
							C107.1,529.5,110.5,532.8,114.7,535.4L114.7,535.4z"/>
					</g>
				</g>
				<g class="st1">
					<g>
						<path class="st35" d="M1,493.3c14.8,0,29-13,28.3-28.3c-0.7-15.4-12.5-28.3-28.3-28.3c-14.8,0-29,13-28.3,28.3
							C-26.7,480.4-14.9,493.3,1,493.3L1,493.3z"/>
					</g>
				</g>
				<g class="st1">
					<g>
						<path class="st35" d="M21,524.3c14.8,0,29-13,28.3-28.3c-0.7-15.4-12.5-28.3-28.3-28.3c-14.8,0-29,13-28.3,28.3
							C-6.7,511.4,5.1,524.3,21,524.3L21,524.3z"/>
					</g>
				</g>
				<g class="st1">
					<g>
						<path class="st35" d="M24,461.2c7.7,0,14.2-6.5,14.2-14.2s-6.5-14.2-14.2-14.2S9.8,439.3,9.8,447S16.3,461.2,24,461.2
							L24,461.2z"/>
					</g>
				</g>
				<g class="st1">
					<g>
						<path class="st35" d="M391,490.2c7.7,0,14.2-6.5,14.2-14.2s-6.5-14.2-14.2-14.2s-14.2,6.5-14.2,14.2S383.3,490.2,391,490.2
							L391,490.2z"/>
					</g>
				</g>
				<g class="st1">
					<g>
						<path class="st35" d="M91,466.1c9.1,0,9.1-14.2,0-14.2S81.9,466.1,91,466.1L91,466.1z"/>
					</g>
				</g>
			</g>
		</g>
		<g>
			<defs>
				<rect id="SVGID_48_" x="0.5" y="-0.2" width="1920" height="815.4"/>
			</defs>
			<clipPath id="SVGID_49_">
				<use xlink:href="#SVGID_48_"  style="overflow:visible;"/>
			</clipPath>
			<g id="white-smoke" class="st36">
				<g class="st1">
					<path class="st33" d="M662,788.8c-0.1,0-0.1,0-0.2,0c-1.5-6.2-7.2-11-13.8-11c-3.8,0-7.3,1.6-9.9,4.2c-0.7-0.1-1.4-0.2-2.1-0.2
						c-6.1,0-11.4,4.1-13.4,9.6c-0.8-0.9-1.6-1.7-2.5-2.6c-3.8-3.5-7.9-6.5-12.3-9c4.9-2.3,8.4-7.3,8.4-12.9
						c0-7.7-6.5-14.2-14.2-14.2c-3.5,0-6.8,1.4-9.3,3.6c-3.8-11.3-13.9-19.8-26.7-19.8c-5.5,0-10.9,1.8-15.5,4.8
						c-1.1-1.2-2.2-2.4-3.4-3.6c-11.1-10.2-24.7-16.6-40.1-16.6c-1.9,0-3.8,0.1-5.7,0.3c0.9-0.8,1.9-1.7,2.8-2.5
						c9.8-9.8,17.2-26,16.6-40.1c-0.7-14.7-5.5-29.9-16.6-40.1c-11.1-10.2-24.7-16.6-40.1-16.6c-5.9,0-11.9,1.1-17.7,3
						c0-0.8,0.1-1.5,0-2.3c-0.7-15.4-12.5-28.3-28.3-28.3c-0.4,0-0.9,0-1.3,0c0.5-2.2,0.8-4.4,0.7-6.7c-0.5-11.7-7.5-22.1-17.9-26.3
						c1.3-2.7,1.9-5.6,1.8-8.7c-0.3-7.6-4.3-14.4-10.3-18.1c9.6-2,17.8-10.7,17.3-20.9c-0.5-10.8-8.3-20.1-19.2-21.2
						c0.3-1.6,0.4-3.2,0.3-4.8c-0.4-9.8-5.4-18.6-13-23.7c0-0.1,0-0.2,0-0.3c-0.7-15.4-12.5-28.3-28.3-28.3c-3.5,0-6.9,0.7-10.1,2
						c-0.3-0.3-0.5-0.5-0.8-0.8c-6.2-5.7-13.1-10.2-20.7-13c-2.6-5.5-6.1-10.5-10.6-14.6c-11.1-10.2-24.7-16.6-40.1-16.6
						c-1.6,0-3.2,0.1-4.8,0.2c1.6-3,2.5-6.3,2.4-9.9c-0.5-11.5-9.3-21.3-21.3-21.3c-10.1,0-19.7,8-21.1,18
						c-11.1,0.1-21.7,9.8-21.2,21.3c0,0.6,0.1,1.2,0.2,1.8c-2.1,3.3-3.3,7.1-3.2,11.2c0,0.4,0.1,0.8,0.1,1.3c-5.6,1.2-11,3.2-16,6
						c-6.2,2.8-11.9,6.7-16.6,11.3c-7,7-12.8,17.3-15.3,27.7c-8.7,2.1-16.5,7.8-21.2,15.4c-2-1.1-4.3-1.8-6.8-1.8
						c-7.7,0-14.2,6.5-14.2,14.2s6.5,14.2,14.2,14.2c1.4,0,2.8-0.2,4.1-0.6c1.8,5.4,4.8,10.3,8.8,14.2c-6.7,1.5-13.3,4.3-19,8
						c-0.3-0.3-0.5-0.5-0.8-0.8C103,512.7,89.4,506.3,74,506.3c-3.5,0-7,0.4-10.4,1.1c-0.5-0.5-1-1-1.5-1.4
						c-7.7-7.1-16.6-12.3-26.5-14.9c-2.6-8.4-7-16.1-13.5-22.1C11,458.7-2.6,452.3-18,452.3c-14.5,0-29.8,6.3-40.1,16.6
						c-9.8,9.8-17.2,26-16.6,40.1c0.7,14.7,5.5,29.9,16.6,40.1c7.7,7.1,16.6,12.3,26.5,14.9c0.7,2.1,1.4,4.3,2.4,6.3
						c-4.8,8.4-7.6,17.7-7.5,27.7c0.1,63,1.7,125.9,4.8,188.8c1.1,22.9,13.3,42.7,34.9,51.8c4.4,2.6,9.2,3.9,14.3,3.9
						c5,1.4,10,1.4,15.1,0c11.6-1.6,24.7-6.4,32.6-15.6c3-3.5,5.9-7,8.9-10.5c6.2,10,15.5,17.3,26.3,21.8c4.4,2.6,9.2,3.9,14.3,3.9
						c5,1.4,10,1.4,15.1,0c12.5-1.7,23.3-6.7,32.6-15.6c4.4-4.2,8.6-8.6,12.6-13.2c0.8,1.6,1.7,3.2,2.5,4.8
						c5,8.5,11.8,15.3,20.3,20.3c6.5,4.1,13.5,6.4,21.1,6.7c7.5,1.7,15.1,1.4,22.6-1c9.6-2.7,17.9-7.6,25-14.6c1.6-2,3.1-4,4.7-6
						c0.2,0.3,0.3,0.6,0.5,0.8c3,3.8,5.9,7.6,8.9,11.5c7.1,7,15.4,11.9,25,14.6c2,0.7,3.9,1.5,5.9,2.2c7.5,2.4,15.1,2.7,22.6,1
						c7.5-0.3,14.6-2.6,21.1-6.7c6.6-3.6,11.9-8.4,15.9-14.6c0.2-0.2,0.3-0.4,0.5-0.6c0.4,0,0.7-0.1,1.1-0.1
						c8.5-2.4,16-6.5,22.5-12.2c1.2,13.6,6.1,27.2,16.4,36.6c11.1,10.2,24.7,16.6,40.1,16.6c8.6,0,17.5-2.2,25.5-6.2
						c2.7,2.4,5.7,4.6,8.9,6.5c4.5,1.9,9,3.8,13.5,5.7c4.7,1.3,9.3,1.9,14,2c0.2,0,0.3,0,0.5,0c7.5,1.7,15.1,1.4,22.6-1
						c4.1-1,8-2.5,11.5-4.5c9.5,6.6,20.4,10.5,32.4,10.5c14.5,0,29.8-6.3,40.1-16.6c9.8-9.8,17.2-26,16.6-40.1
						c-0.3-6.4-1.4-12.9-3.4-19.1c0.9,0.2,1.8,0.3,2.7,0.3c3.8,0,7.3-1.6,9.9-4.2c0.7,0.1,1.4,0.2,2.1,0.2c0.1,0,0.1,0,0.2,0
						c1.5,6.2,7.2,11,13.8,11c7.7,0,14.2-6.5,14.2-14.2C676.2,795.3,669.7,788.8,662,788.8z"/>
					<path class="st33" d="M743.9,785.9c-3.7-6-10.1-10.2-17.9-10.2c-5.9,0-11.7,2.8-15.8,7.1c-0.7-0.1-1.5-0.1-2.2-0.1
						c-11.1,0-21.8,9.8-21.3,21.3s9.3,21.3,21.3,21.3c4.9,0,9.7-1.9,13.5-5c3.8,4.3,9.2,7,15.5,7c11.1,0,21.8-9.8,21.3-21.3
						C757.8,796.8,752.2,788.8,743.9,785.9z"/>
					<path class="st33" d="M784,787.8c-7.7,0-14.2,6.5-14.2,14.2s6.5,14.2,14.2,14.2s14.2-6.5,14.2-14.2S791.7,787.8,784,787.8z"/>
				</g>
				<g class="st1">
					<g>
						<path class="st37" d="M759,275"/>
					</g>
				</g>
				<g class="st1">
					<g>
						<path class="st33" d="M425,550c6.4,0,6.4-10,0-10S418.6,550,425,550L425,550z"/>
					</g>
				</g>
				<g class="st1">
					<g>
						<path class="st33" d="M427,571.2c7.7,0,14.2-6.5,14.2-14.2s-6.5-14.2-14.2-14.2s-14.2,6.5-14.2,14.2S419.3,571.2,427,571.2
							L427,571.2z"/>
					</g>
				</g>
				<g class="st1">
					<g>
						<path class="st33" d="M590,714.2c7.7,0,14.2-6.5,14.2-14.2s-6.5-14.2-14.2-14.2s-14.2,6.5-14.2,14.2S582.3,714.2,590,714.2
							L590,714.2z"/>
					</g>
				</g>
				<g class="st1">
					<g>
						<path class="st33" d="M92,448.3c14.6,0,14.6-22.7,0-22.7C77.4,425.7,77.4,448.3,92,448.3L92,448.3z"/>
					</g>
				</g>
				<g class="st1">
					<g>
						<path class="st33" d="M328,417.1c9.1,0,9.1-14.2,0-14.2S318.9,417.1,328,417.1L328,417.1z"/>
					</g>
				</g>
				<g class="st1">
					<g>
						<path class="st33" d="M390,439.1c9.1,0,9.1-14.2,0-14.2S380.9,439.1,390,439.1L390,439.1z"/>
					</g>
				</g>
				<g class="st1">
					<g>
						<path class="st33" d="M150,403.1c9.1,0,9.1-14.2,0-14.2S140.9,403.1,150,403.1L150,403.1z"/>
					</g>
				</g>
				<g class="st1">
					<g>
						<path class="st33" d="M657,786c1.9,0,1.9-3,0-3S655.1,786,657,786L657,786z"/>
					</g>
				</g>
				<g class="st1">
					<g>
						<path class="st33" d="M677.5,807c1.9,0,1.9-3,0-3S675.6,807,677.5,807L677.5,807z"/>
					</g>
				</g>
				<g class="st1">
					<g>
						<path class="st33" d="M681,804.8c16.4,0,16.4-25.5,0-25.5C664.6,779.2,664.6,804.8,681,804.8L681,804.8z"/>
					</g>
				</g>
				<g class="st1">
					<g>
						<path class="st33" d="M761.5,818.8c16.4,0,16.4-25.5,0-25.5C745.1,793.2,745.1,818.8,761.5,818.8L761.5,818.8z"/>
					</g>
				</g>
				<g class="st1">
					<g>
						<path class="st33" d="M617.5,790.3c16.4,0,16.4-25.5,0-25.5C601.1,764.7,601.1,790.3,617.5,790.3L617.5,790.3z"/>
					</g>
				</g>
				<g class="st1">
					<g>
						<path class="st33" d="M622,802.8c16.4,0,16.4-25.5,0-25.5C605.6,777.2,605.6,802.8,622,802.8L622,802.8z"/>
					</g>
				</g>
			</g>
		</g>
		<g>
			<defs>
				<rect id="SVGID_50_" x="0.5" y="-0.2" width="1920" height="815.4"/>
			</defs>
			<clipPath id="SVGID_51_">
				<use xlink:href="#SVGID_50_"  style="overflow:visible;"/>
			</clipPath>
			<rect id="bottom-line" y="800" class="st38" width="1920" height="15"/>
		</g>
	</g>
</g>
</svg>
