<svg id="Planety" xmlns="http://www.w3.org/2000/svg" xmlns:xlink="http://www.w3.org/1999/xlink" viewBox="0 0 2560 1440"><defs><style>.cls-1,.cls-13{fill:none;}.cls-2{fill:#fff;}.cls-3{fill:#fcd786;}.cls-4{fill:#e6e7e9;}.cls-5{fill:#9e9c9d;}.cls-6{clip-path:url(#clip-path);}.cls-7{fill:#3f254f;opacity:0.15;}.cls-8{fill:#bf2c76;}.cls-9{fill:#f4607c;}.cls-10{fill:#c4c4c4;}.cls-11{clip-path:url(#clip-path-2);}.cls-12{fill:#e8e8e8;}.cls-13{stroke:#d8d8d8;stroke-miterlimit:10;stroke-width:3px;}.cls-14{fill:#dbdbdb;}.cls-15{clip-path:url(#clip-path-3);}.cls-16{clip-path:url(#clip-path-4);}.cls-17{fill:#d8d8d8;}.cls-18{fill:#bcc0c1;}.cls-19{fill:#494949;}.cls-20{clip-path:url(#clip-path-5);}</style><clipPath id="clip-path"><rect class="cls-1" x="1.33" width="2558.67" height="1440"/></clipPath><clipPath id="clip-path-2"><circle id="_Ellipse_" data-name="&lt;Ellipse&gt;" class="cls-2" cx="131.82" cy="1108.02" r="47.66" transform="translate(-744.88 417.74) rotate(-45)"/></clipPath><clipPath id="clip-path-3"><path id="_Clipping_Path_" data-name="&lt;Clipping Path&gt;" class="cls-3" d="M115.31,1109.7l-30.83,1.09a8.46,8.46,0,0,0-6.7,3.7h0a8.44,8.44,0,0,0-1.44,5.37c0.41,5.6,2.72,17.75,14.31,29.35l0.44,0.44c11.8,11.55,24.15,13.92,29.48,14.39a8.43,8.43,0,0,0,4.72-1l0.59-.32a8.46,8.46,0,0,0,4.46-7.64l-0.68-30.91a8.46,8.46,0,0,0-2.17-5.47l-5.6-6.22A8.46,8.46,0,0,0,115.31,1109.7Z"/></clipPath><clipPath id="clip-path-4"><path id="_Clipping_Path_2" data-name="&lt;Clipping Path&gt;" class="cls-4" d="M117.31,1107.7l-30.83,1.09a8.46,8.46,0,0,0-6.7,3.7h0a8.44,8.44,0,0,0-1.44,5.37c0.41,5.6,2.72,17.75,14.31,29.35l0.44,0.44c11.8,11.55,24.15,13.92,29.48,14.39a8.43,8.43,0,0,0,4.72-1l0.59-.32a8.46,8.46,0,0,0,4.46-7.64l-0.68-30.91a8.46,8.46,0,0,0-2.17-5.47l-5.6-6.22A8.46,8.46,0,0,0,117.31,1107.7Z"/></clipPath><clipPath id="clip-path-5"><path id="_Clipping_Path_3" data-name="&lt;Clipping Path&gt;" class="cls-5" d="M146.13,1106.88l30.46,5.18a3.67,3.67,0,0,0,3.21-1l2.79-2.79a5.85,5.85,0,0,1,8.27,0h0a5.85,5.85,0,0,1,0,8.27l-9.13,9.13a3.67,3.67,0,0,1-3.88.84l-33.63-12.55a3.67,3.67,0,0,1-1.7-5.58h0A3.67,3.67,0,0,1,146.13,1106.88Z"/></clipPath></defs><title>bg-millenium</title><g class="cls-6"><g id="Millenium_Falcon" data-name="Millenium Falcon"><path class="cls-7" d="M235.18,1030.06l-0.84-.84a3.94,3.94,0,0,0-5.58,0l-2.1,2.1a3.94,3.94,0,0,1-3.07,1.15,4,4,0,0,0-3.07,1.15l-10,10-11.94-11.94,10-10a3.94,3.94,0,0,0,1.15-3.07,3.94,3.94,0,0,1,1.15-3.07l2.1-2.1a4,4,0,0,0,0-5.58l-0.72-.72a4,4,0,0,0-4.1-.93l-67.45,23.7a3.84,3.84,0,0,0-2.45,2.59,79.86,79.86,0,1,0,71.12,71.6,3.84,3.84,0,0,0,3-2.53l23.76-67.4A4,4,0,0,0,235.18,1030.06Z"/><rect class="cls-8" x="-115.98" y="1018.82" width="86.41" height="620.1" transform="translate(-1029.6 2253.9) rotate(-137.17)"/><path class="cls-9" d="M25.26,1177.81c1.42,1.32,4.11.75,6-1.27l3.88-4.19c1.87-2,4.7-2.46,6.29-1s1.36,4.33-.51,6.34l-4,4.28-6.8,7.33-29,31.24-6.8,7.33-3.65,3.93c-1.87,2-2.17,4.81-.66,6.2s4.27,0.89,6.13-1.13l39.41-42.51,5-5.44c0.9-1,2.88-.63,4.38.76s2,3.33,1.09,4.31l-5,5.44-12.35,13.32c-1.87,2-2.17,4.81-.66,6.2s4.27,0.89,6.13-1.13l12.35-13.32,6.8-7.33,5.39-5.82c1.87-2,4.63-2.53,6.13-1.13s1.21,4.19-.66,6.2l-5.39,5.82-6.8,7.33-28.73,31c-1.87,2-2.17,4.81-.66,6.2a3.69,3.69,0,0,0,5.2-.12l5.86-6.32,23.8-25.68,6.8-7.33,13.23-14.27c1.87-2,4.63-2.53,6.13-1.13s1.21,4.19-.66,6.2l-13.23,14.27-6.8,7.33-2.73,2.95c-1.87,2-2.17,4.81-.66,6.2s4.27,0.89,6.13-1.13l2.73-2.95,6.8-7.33,8-8.6,6.8-7.33,81.78-88.21a5,5,0,0,0-.27-7.07l-41.91-38.85a5,5,0,0,0-7.07.27L26.07,1171.75C24.2,1173.77,23.84,1176.49,25.26,1177.81Z"/><path class="cls-4" d="M138.28,1059.08l40.25-14.14a2.35,2.35,0,0,1,2.45.56l0.43,0.43a2.35,2.35,0,0,1,0,3.33l-1.25,1.25a2.35,2.35,0,0,0-.68,1.83h0a2.35,2.35,0,0,1-.68,1.83L159.93,1073a2.35,2.35,0,0,1-2.76.42L138,1063.39A2.35,2.35,0,0,1,138.28,1059.08Z"/><path class="cls-10" d="M181,1101.85l14.18-40.23a2.35,2.35,0,0,0-.56-2.45l-0.5-.5a2.35,2.35,0,0,0-3.33,0l-1.25,1.25a2.35,2.35,0,0,1-1.83.68h0a2.35,2.35,0,0,0-1.83.68l-18.85,18.85a2.35,2.35,0,0,0-.42,2.76l10.09,19.26A2.35,2.35,0,0,0,181,1101.85Z"/><circle id="_Ellipse_2" data-name="&lt;Ellipse&gt;" class="cls-2" cx="131.82" cy="1108.02" r="47.66" transform="translate(-744.88 417.74) rotate(-45)"/><g class="cls-11"><rect class="cls-12" x="118.97" y="1069.32" width="86.18" height="139.33" transform="translate(852.85 219.01) rotate(45)"/></g><circle class="cls-13" cx="131.82" cy="1108.02" r="24.03" transform="translate(-744.88 417.74) rotate(-45)"/><rect class="cls-14" x="152.84" y="1056.1" width="10.4" height="51.73" transform="translate(811.35 205.15) rotate(45)"/><rect class="cls-10" x="164.17" y="1062.77" width="4.43" height="21.68" transform="translate(807.89 196.8) rotate(45)"/><rect class="cls-5" x="157.75" y="1078.27" width="4.43" height="3.52" transform="translate(810.55 203.23) rotate(45)"/><path id="_Clipping_Path_4" data-name="&lt;Clipping Path&gt;" class="cls-3" d="M115.31,1109.7l-30.83,1.09a8.46,8.46,0,0,0-6.7,3.7h0a8.44,8.44,0,0,0-1.44,5.37c0.41,5.6,2.72,17.75,14.31,29.35l0.44,0.44c11.8,11.55,24.15,13.92,29.48,14.39a8.43,8.43,0,0,0,4.72-1l0.59-.32a8.46,8.46,0,0,0,4.46-7.64l-0.68-30.91a8.46,8.46,0,0,0-2.17-5.47l-5.6-6.22A8.46,8.46,0,0,0,115.31,1109.7Z"/><g class="cls-15"><rect class="cls-3" x="101.92" y="1099.82" width="55.82" height="98.17" transform="translate(815.72 218.11) rotate(42.83)"/></g><path id="_Clipping_Path_5" data-name="&lt;Clipping Path&gt;" class="cls-4" d="M117.31,1107.7l-30.83,1.09a8.46,8.46,0,0,0-6.7,3.7h0a8.44,8.44,0,0,0-1.44,5.37c0.41,5.6,2.72,17.75,14.31,29.35l0.44,0.44c11.8,11.55,24.15,13.92,29.48,14.39a8.43,8.43,0,0,0,4.72-1l0.59-.32a8.46,8.46,0,0,0,4.46-7.64l-0.68-30.91a8.46,8.46,0,0,0-2.17-5.47l-5.6-6.22A8.46,8.46,0,0,0,117.31,1107.7Z"/><g class="cls-16"><rect class="cls-17" x="103.92" y="1097.82" width="55.82" height="98.17" transform="translate(814.89 216.21) rotate(42.83)"/></g><path class="cls-18" d="M141.91,1112.05l27.42,23.51a4.44,4.44,0,0,1,.08,6.35l-3.68,3.68a4.44,4.44,0,0,1-6.35-.08l-23.51-27.42Z"/><path class="cls-18" d="M127.82,1098l-23.71-27.62a4.43,4.43,0,0,0-6.34-.08L94.08,1074a4.43,4.43,0,0,0,.08,6.34L121.78,1104Z"/><circle class="cls-19" cx="131.82" cy="1108.02" r="15.17" transform="translate(-744.88 417.74) rotate(-45)"/><circle class="cls-5" cx="131.82" cy="1108.02" r="12.78" transform="translate(-744.88 417.74) rotate(-45)"/><circle class="cls-2" cx="131.82" cy="1108.02" r="6.07" transform="translate(-744.88 417.74) rotate(-45)"/><path id="_Clipping_Path_6" data-name="&lt;Clipping Path&gt;" class="cls-5" d="M146.13,1106.88l30.46,5.18a3.67,3.67,0,0,0,3.21-1l2.79-2.79a5.85,5.85,0,0,1,8.27,0h0a5.85,5.85,0,0,1,0,8.27l-9.13,9.13a3.67,3.67,0,0,1-3.88.84l-33.63-12.55a3.67,3.67,0,0,1-1.7-5.58h0A3.67,3.67,0,0,1,146.13,1106.88Z"/><g class="cls-20"><rect class="cls-19" x="187.79" y="1092.53" width="19.08" height="34.77" transform="translate(-727.03 464.62) rotate(-45)"/></g><circle class="cls-18" cx="101.37" cy="1138.62" r="3.41" transform="translate(-775.44 405.18) rotate(-45)"/><circle class="cls-18" cx="116.62" cy="1149.74" r="3.41" transform="translate(-778.83 419.22) rotate(-45)"/><circle class="cls-18" cx="92.94" cy="1119.89" r="3.41" transform="translate(-764.66 393.73) rotate(-45)"/></g></g></svg>