<svg id="Planety" xmlns="http://www.w3.org/2000/svg" xmlns:xlink="http://www.w3.org/1999/xlink" viewBox="0 0 2560 1440"><defs><style>.cls-1{fill:none;}.cls-2{fill:#cacdce;}.cls-3{fill:#e2e2e2;}.cls-4{fill:#d82537;}.cls-5{fill:#fffffe;}.cls-6{clip-path:url(#clip-path);}.cls-7{clip-path:url(#clip-path-2);}.cls-8{clip-path:url(#clip-path-3);}.cls-9{fill:#494949;}.cls-10{fill:#3d3d3d;}.cls-11{clip-path:url(#clip-path-4);}.cls-12{clip-path:url(#clip-path-5);}.cls-13{clip-path:url(#clip-path-6);}.cls-14{fill:#c42a40;}.cls-15{fill:#7f1f31;}.cls-16{fill:#e23434;}.cls-17{fill:url(#linear-gradient);}.cls-18{fill:url(#linear-gradient-2);}.cls-19{fill:#efefef;}.cls-20{fill:#38190a;}.cls-21{clip-path:url(#clip-path-7);}.cls-22{fill:#f4f4f4;}.cls-23{fill:#f57b04;}.cls-24{fill:#f5c002;}</style><clipPath id="clip-path"><rect class="cls-1" x="1.33" width="2558.67" height="1440"/></clipPath><clipPath id="clip-path-2"><path id="_Clipping_Path_" data-name="&lt;Clipping Path&gt;" class="cls-2" d="M1818.55,303.19l-23.73-54.73c-2.44-5.64.5-14,.5-14s7.54,4,9.91,9.47L1829,298.68Z"/></clipPath><clipPath id="clip-path-3"><rect id="_Rectangle_" data-name="&lt;Rectangle&gt;" class="cls-3" x="1770.37" y="230.77" width="43.76" height="103.28" transform="translate(35.58 736.3) rotate(-23.44)"/></clipPath><clipPath id="clip-path-4"><path id="_Clipping_Path_2" data-name="&lt;Clipping Path&gt;" class="cls-2" d="M1856.55,287.19l-23.73-54.73c-2.44-5.64.5-14,.5-14s7.54,4,9.91,9.47L1867,282.68Z"/></clipPath><clipPath id="clip-path-5"><rect id="_Rectangle_2" data-name="&lt;Rectangle&gt;" class="cls-3" x="1808.37" y="214.77" width="43.76" height="103.28" transform="translate(45.08 750.09) rotate(-23.44)"/></clipPath><clipPath id="clip-path-6"><path id="_Clipping_Path_3" data-name="&lt;Clipping Path&gt;" class="cls-4" d="M1837.35,318l27.53-11.94-35.94-82.88c-4.84-11.16-19.4-21.28-24.45-19.09s-8,19.67-3,31.24Z"/></clipPath><linearGradient id="linear-gradient" x1="1880.85" y1="329.04" x2="1971.85" y2="537.04" gradientTransform="translate(329.01 -730.12) rotate(23.44)" gradientUnits="userSpaceOnUse"><stop offset="0" stop-color="#e23434"/><stop offset="0.5" stop-color="#e23434"/><stop offset="1" stop-opacity="0"/></linearGradient><linearGradient id="linear-gradient-2" x1="1842.6" y1="345.78" x2="1933.6" y2="553.78" gradientTransform="translate(332.98 -713.62) rotate(23.44)" xlink:href="#linear-gradient"/><clipPath id="clip-path-7"><path id="_Clipping_Path_4" data-name="&lt;Clipping Path&gt;" class="cls-5" d="M1845.69,320.59l15.37-6.66a3.08,3.08,0,0,0,1.71-4l-27.66-63.79c-3.87-8.92-15.28-17.11-19.13-15.44s-6,15.54-2,24.78l27.59,63.63A3.08,3.08,0,0,0,1845.69,320.59Z"/></clipPath></defs><title>bg-rocket</title><g class="cls-6"><g id="Raketa"><path id="_Clipping_Path_5" data-name="&lt;Clipping Path&gt;" class="cls-2" d="M1818.55,303.19l-23.73-54.73c-2.44-5.64.5-14,.5-14s7.54,4,9.91,9.47L1829,298.68Z"/><g class="cls-7"><rect id="_Rectangle_3" data-name="&lt;Rectangle&gt;" class="cls-3" x="1770.37" y="230.77" width="43.76" height="103.28" transform="translate(35.58 736.3) rotate(-23.44)"/><g class="cls-8"><rect class="cls-9" x="1791.2" y="249.29" width="23.36" height="7.24" transform="translate(48.19 738.09) rotate(-23.44)"/><rect class="cls-9" x="1797.4" y="265.7" width="23.36" height="3" transform="translate(43.02 741.74) rotate(-23.44)"/><rect class="cls-9" x="1799.55" y="270.69" width="23.36" height="3" transform="translate(41.21 743) rotate(-23.44)"/></g><rect class="cls-10" x="1802.37" y="244.96" width="21" height="7.24" transform="translate(50.74 741.71) rotate(-23.44)"/><rect class="cls-10" x="1810.74" y="266.4" width="21.06" height="2.93" transform="translate(43.76 746.64) rotate(-23.44)"/><rect class="cls-10" x="1808.56" y="261.35" width="21.06" height="2.99" transform="translate(45.57 745.36) rotate(-23.44)"/></g><path id="_Clipping_Path_6" data-name="&lt;Clipping Path&gt;" class="cls-2" d="M1856.55,287.19l-23.73-54.73c-2.44-5.64.5-14,.5-14s7.54,4,9.91,9.47L1867,282.68Z"/><g class="cls-11"><rect id="_Rectangle_4" data-name="&lt;Rectangle&gt;" class="cls-3" x="1808.37" y="214.77" width="43.76" height="103.28" transform="translate(45.08 750.09) rotate(-23.44)"/><g class="cls-12"><rect class="cls-9" x="1829.2" y="233.29" width="23.36" height="7.24" transform="translate(57.69 751.89) rotate(-23.44)"/><rect class="cls-9" x="1835.4" y="249.7" width="23.36" height="3" transform="translate(52.52 755.53) rotate(-23.44)"/><rect class="cls-9" x="1837.55" y="254.69" width="23.36" height="3" transform="translate(50.71 756.8) rotate(-23.44)"/></g><rect class="cls-10" x="1840.37" y="228.96" width="21" height="7.24" transform="translate(60.24 755.51) rotate(-23.44)"/><rect class="cls-10" x="1848.74" y="250.4" width="21.06" height="2.93" transform="translate(53.26 760.44) rotate(-23.44)"/><rect class="cls-10" x="1846.56" y="245.35" width="21.06" height="2.99" transform="translate(55.08 759.16) rotate(-23.44)"/></g><path id="_Clipping_Path_7" data-name="&lt;Clipping Path&gt;" class="cls-4" d="M1837.35,318l27.53-11.94-35.94-82.88c-4.84-11.16-19.4-21.28-24.45-19.09s-8,19.67-3,31.24Z"/><g class="cls-13"><rect class="cls-14" x="1825.85" y="158.07" width="164" height="157.89" transform="translate(63.18 778.54) rotate(-23.44)"/><rect class="cls-15" x="1779.46" y="199.65" width="57.16" height="22.42" transform="translate(65.34 736.68) rotate(-23.44)"/><rect class="cls-16" x="1796.45" y="244.95" width="57.16" height="2" transform="translate(52.79 746.33) rotate(-23.44)"/></g><rect class="cls-17" x="1918.11" y="302.5" width="11.93" height="250.68" transform="translate(-11.4 800.75) rotate(-23.44)"/><rect class="cls-18" x="1880.34" y="320.33" width="11.93" height="250.68" transform="translate(-21.61 787.19) rotate(-23.44)"/><path class="cls-19" d="M1866.06,281.28c-14.74-3.56-20.29-15.47-22.72-19.76a21.45,21.45,0,0,0-6.61-6.86l-8.52,3.7h0l-8.52,3.7a22.13,22.13,0,0,0,.52,9.59c1.47,4.72,6.36,16.88-1.11,30.07a23.41,23.41,0,0,0,.15,24.17l32-13.87,0.43-.19,32-13.87A23.49,23.49,0,0,0,1866.06,281.28Z"/><path id="_Clipping_Path_8" data-name="&lt;Clipping Path&gt;" class="cls-20" d="M1842.33,318.62l19.83-8.6-28.85-66.54c-3.87-8.92-14.86-17.29-18.47-15.73s-5.3,15.25-1.29,24.49Z"/><path id="_Clipping_Path_9" data-name="&lt;Clipping Path&gt;" class="cls-5" d="M1845.69,320.59l15.37-6.66a3.08,3.08,0,0,0,1.71-4l-27.66-63.79c-3.87-8.92-15.28-17.11-19.13-15.44s-6,15.54-2,24.78l27.59,63.63A3.08,3.08,0,0,0,1845.69,320.59Z"/><g class="cls-21"><rect class="cls-22" x="1834.85" y="197.66" width="82.25" height="136.74" transform="translate(49 768.25) rotate(-23.44)"/></g><rect class="cls-10" x="1827.49" y="320.36" width="11.93" height="6.14" transform="translate(22.66 756.08) rotate(-23.44)"/><rect class="cls-23" x="1830.29" y="326.18" width="9.48" height="1.75" transform="translate(21.35 757) rotate(-23.44)"/><polygon class="cls-24" points="1844 327.47 1829.19 333.89 1829.82 330.04 1840.77 325.3 1844 327.47"/><rect class="cls-10" x="1865.72" y="303.54" width="11.93" height="6.14" transform="translate(32.5 769.9) rotate(-23.44)"/><rect class="cls-10" x="1848.13" y="317.14" width="11.93" height="2.81" transform="translate(26.31 763.88) rotate(-23.44)"/><rect class="cls-23" x="1868.52" y="309.36" width="9.48" height="1.75" transform="translate(31.19 770.82) rotate(-23.44)"/><polygon class="cls-24" points="1882.24 310.65 1867.42 317.07 1868.05 313.23 1879 308.48 1882.24 310.65"/><polygon class="cls-24" points="1866.66 323.7 1849.28 331.24 1849.2 322.25 1860.15 317.5 1866.66 323.7"/><path class="cls-20" d="M1819.31,240.14l1.2,2.91a16.46,16.46,0,0,0-5.08,2.5c-0.52.48-.82-0.08-1-0.53s-0.31-1.23.75-2.18A17.92,17.92,0,0,1,1819.31,240.14Z"/><path class="cls-20" d="M1820.05,239.71l1.3,2.87a16.46,16.46,0,0,1,5.29-2c0.71,0,.5-0.65.33-1.12s-0.68-1.07-2.11-.95A17.92,17.92,0,0,0,1820.05,239.71Z"/><rect class="cls-10" x="1848.93" y="302.25" width="3" height="15.65" transform="translate(29.37 761.73) rotate(-23.44)"/></g></g></svg>